<?xml version="1.0" encoding="UTF-8" standalone="no"?>
<svg
   xmlns:dc="http://purl.org/dc/elements/1.1/"
   xmlns:cc="http://creativecommons.org/ns#"
   xmlns:rdf="http://www.w3.org/1999/02/22-rdf-syntax-ns#"
   xmlns:svg="http://www.w3.org/2000/svg"
   xmlns="http://www.w3.org/2000/svg"
   id="svg147"
   height="180"
   width="180"
   version="1.1">
  <title
     id="title25">Atom JavaScript Snippet - Logo</title>
  <metadata
     id="metadata153">
    <rdf:RDF>
      <cc:Work
         rdf:about="">
        <dc:format>image/svg+xml</dc:format>
        <dc:type
           rdf:resource="http://purl.org/dc/dcmitype/StillImage" />
        <dc:title>Atom JavaScript Snippet - Logo</dc:title>
        <dc:creator>
          <cc:Agent>
            <dc:title>Saran Tanpituckpong</dc:title>
          </cc:Agent>
        </dc:creator>
      </cc:Work>
    </rdf:RDF>
  </metadata>
  <defs
     id="defs151" />
  <g
     transform="translate(-9.9887085,-9.4652634)"
     id="layer2">
    <circle
       r="90"
       cy="99.465263"
       cx="99.988708"
       id="path4637"
       style="fill:#ffff00;fill-opacity:1;stroke:none;stroke-width:1.64656091;stroke-opacity:0" />
  </g>
  <g
     transform="translate(-9.9887085,-9.4652634)"
     id="layer3">
    <g
       transform="translate(-0.666667,5.954802)"
       id="g4657">
      <path
         d="m 141.18909,63.301677 c 2.11268,-10.752718 0.93121,-18.913295 -4.0625,-22.15625 -1.66457,-1.080985 -3.66023,-1.554019 -5.90625,-1.46875 -12.12851,0.46045 -31.698321,17.16007 -47.687501,41.78125 -18.950138,29.180653 -25.684504,58.425453 -15.03125,65.343753 5.056946,3.28402 13.115147,0.95604 22.21875,-5.53125"
         style="fill:none;stroke:#66595c;stroke-width:5;stroke-linecap:round"
         id="path139" />
      <path
         d="m 150.90784,111.02043 c 8.99437,-3.48919 14.52504,-8.26501 14.8125,-13.750003 0.6648,-12.68514 -26.94124,-24.42903 -61.6875,-26.25 -3.25746,-0.17072 -6.460591,-0.26054 -9.593751,-0.25 -30.287234,0.10193 -53.928775,8.41034 -54.53125,19.90625 -0.286892,5.47422 4.700484,10.782383 13.25,15.187503"
         style="fill:none;stroke:#66595c;stroke-width:5;stroke-linecap:round"
         id="path141" />
      <path
         d="m 94.220339,44.395427 c -6.153875,-5.105891 -11.925448,-7.847783 -16.5625,-7.5 -1.23461,0.0926 -2.376432,0.396859 -3.4375,0.9375 -11.318054,5.766837 -7.702368,35.59212 8.09375,66.593753 15.79612,31.00163 37.775701,51.45434 49.093751,45.6875 10.8844,-5.54588 7.94666,-33.33775 -6.34375,-63.031253"
         style="fill:none;stroke:#66595c;stroke-width:5;stroke-linecap:round"
         id="path143" />
      <path
         d="m 110.72034,94.864407 a 7.5000005,7.5000005 0 0 1 -15.000001,0 7.5000005,7.5000005 0 1 1 15.000001,0 z"
         style="fill:#66595c"
         id="path145" />
    </g>
  </g>
  <g
     transform="translate(-9.9887085,-9.4652634)"
     style="display:inline"
     id="layer1">
    <text
       id="text157"
       y="180.36008"
       x="82.973343"
       style="font-style:normal;font-variant:normal;font-weight:normal;font-stretch:normal;font-size:28.90264893px;line-height:1.25;font-family:'Fira Mono';-inkscape-font-specification:'Fira Mono';letter-spacing:0px;word-spacing:0px;fill:#66595c;fill-opacity:1;stroke:none;stroke-width:0.72256625"
       xml:space="preserve"><tspan
         style="font-style:normal;font-variant:normal;font-weight:normal;font-stretch:normal;font-family:'Fira Mono';-inkscape-font-specification:'Fira Mono';stroke-width:0.72256625"
         y="180.36008"
         x="82.973343"
         id="tspan155">JS</tspan></text>
  </g>
</svg>
